<mxfile host="app.diagrams.net" agent="Mozilla/5.0 (Windows NT 10.0; Win64; x64) AppleWebKit/537.36 (KHTML, like Gecko) Chrome/130.0.0.0 Safari/537.36" version="24.8.3">
  <diagram name="Page-1" id="t6r5nnBZRY_cjMvH12U9">
    <mxGraphModel dx="1114" dy="600" grid="1" gridSize="10" guides="1" tooltips="1" connect="1" arrows="1" fold="1" page="1" pageScale="1" pageWidth="850" pageHeight="1100" math="0" shadow="0">
      <root>
        <mxCell id="0" />
        <mxCell id="1" parent="0" />
        <mxCell id="iDCBKettWaWd0seInYVd-1" value="Patient&lt;div&gt;&lt;br&gt;&lt;/div&gt;" style="swimlane;fontStyle=1;align=center;verticalAlign=top;childLayout=stackLayout;horizontal=1;startSize=26;horizontalStack=0;resizeParent=1;resizeParentMax=0;resizeLast=0;collapsible=1;marginBottom=0;whiteSpace=wrap;html=1;" vertex="1" parent="1">
          <mxGeometry x="50" y="50" width="160" height="220" as="geometry" />
        </mxCell>
        <mxCell id="iDCBKettWaWd0seInYVd-2" value="- ID : string&lt;div&gt;- Gender : char&lt;/div&gt;&lt;div&gt;- arrival_Time : string&lt;/div&gt;&lt;div&gt;-is_urguent : bool&lt;/div&gt;&lt;div&gt;&lt;br&gt;&lt;/div&gt;" style="text;strokeColor=none;fillColor=none;align=left;verticalAlign=top;spacingLeft=4;spacingRight=4;overflow=hidden;rotatable=0;points=[[0,0.5],[1,0.5]];portConstraint=eastwest;whiteSpace=wrap;html=1;" vertex="1" parent="iDCBKettWaWd0seInYVd-1">
          <mxGeometry y="26" width="160" height="74" as="geometry" />
        </mxCell>
        <mxCell id="iDCBKettWaWd0seInYVd-3" value="" style="line;strokeWidth=1;fillColor=none;align=left;verticalAlign=middle;spacingTop=-1;spacingLeft=3;spacingRight=3;rotatable=0;labelPosition=right;points=[];portConstraint=eastwest;strokeColor=inherit;" vertex="1" parent="iDCBKettWaWd0seInYVd-1">
          <mxGeometry y="100" width="160" height="8" as="geometry" />
        </mxCell>
        <mxCell id="iDCBKettWaWd0seInYVd-4" value="+Get_Id() : string&lt;div&gt;+ Check_ID() : bool&lt;/div&gt;&lt;div&gt;+ Get_Gender() : char&lt;/div&gt;&lt;div&gt;+ Get_Arrival_Time : string&lt;/div&gt;&lt;div&gt;+ is_Urguent() : bool&lt;br&gt;&lt;div&gt;&lt;br&gt;&lt;/div&gt;&lt;/div&gt;" style="text;strokeColor=none;fillColor=none;align=left;verticalAlign=top;spacingLeft=4;spacingRight=4;overflow=hidden;rotatable=0;points=[[0,0.5],[1,0.5]];portConstraint=eastwest;whiteSpace=wrap;html=1;" vertex="1" parent="iDCBKettWaWd0seInYVd-1">
          <mxGeometry y="108" width="160" height="112" as="geometry" />
        </mxCell>
        <mxCell id="iDCBKettWaWd0seInYVd-5" value="Queue_System" style="swimlane;fontStyle=1;align=center;verticalAlign=top;childLayout=stackLayout;horizontal=1;startSize=26;horizontalStack=0;resizeParent=1;resizeParentMax=0;resizeLast=0;collapsible=1;marginBottom=0;whiteSpace=wrap;html=1;" vertex="1" parent="1">
          <mxGeometry x="266" y="50" width="210" height="268" as="geometry" />
        </mxCell>
        <mxCell id="iDCBKettWaWd0seInYVd-6" value="- urgentQueue: queue&amp;lt;Patient&amp;gt;&lt;div&gt;- normalQueue: queue&amp;lt;Patient&amp;gt;&lt;/div&gt;&lt;div&gt;- total_served: double&lt;/div&gt;&lt;div&gt;- total_waiting: double&lt;/div&gt;&lt;div&gt;- time: int&amp;nbsp;&amp;nbsp;&lt;/div&gt;" style="text;strokeColor=none;fillColor=none;align=left;verticalAlign=top;spacingLeft=4;spacingRight=4;overflow=hidden;rotatable=0;points=[[0,0.5],[1,0.5]];portConstraint=eastwest;whiteSpace=wrap;html=1;" vertex="1" parent="iDCBKettWaWd0seInYVd-5">
          <mxGeometry y="26" width="210" height="94" as="geometry" />
        </mxCell>
        <mxCell id="iDCBKettWaWd0seInYVd-7" value="" style="line;strokeWidth=1;fillColor=none;align=left;verticalAlign=middle;spacingTop=-1;spacingLeft=3;spacingRight=3;rotatable=0;labelPosition=right;points=[];portConstraint=eastwest;strokeColor=inherit;" vertex="1" parent="iDCBKettWaWd0seInYVd-5">
          <mxGeometry y="120" width="210" height="8" as="geometry" />
        </mxCell>
        <mxCell id="iDCBKettWaWd0seInYVd-8" value="&amp;nbsp;+ Queue_System()&lt;div&gt;+ Check_time(n: int): void&lt;/div&gt;&lt;div&gt;+ GetTime(): int&amp;nbsp;&lt;/div&gt;&lt;div&gt;+ Add_Patient(patient: Patient): void&amp;nbsp;&lt;/div&gt;&lt;div&gt;+ Serve_All(num: int): void&amp;nbsp;&lt;/div&gt;&lt;div&gt;+ Serve_One(patient: Patient): void&lt;/div&gt;&lt;div&gt;+ advance_Time(): void&amp;nbsp;&lt;/div&gt;&lt;div&gt;+ Status(num: int): void&amp;nbsp;&lt;/div&gt;&lt;div&gt;+ fStatus(): void    &amp;nbsp;&amp;nbsp;&amp;nbsp;&amp;nbsp;&lt;/div&gt;" style="text;strokeColor=none;fillColor=none;align=left;verticalAlign=top;spacingLeft=4;spacingRight=4;overflow=hidden;rotatable=0;points=[[0,0.5],[1,0.5]];portConstraint=eastwest;whiteSpace=wrap;html=1;" vertex="1" parent="iDCBKettWaWd0seInYVd-5">
          <mxGeometry y="128" width="210" height="140" as="geometry" />
        </mxCell>
        <mxCell id="iDCBKettWaWd0seInYVd-10" value="" style="strokeWidth=2;html=1;shape=mxgraph.flowchart.start_2;whiteSpace=wrap;" vertex="1" parent="1">
          <mxGeometry x="710" y="30" width="20" height="20" as="geometry" />
        </mxCell>
        <mxCell id="iDCBKettWaWd0seInYVd-11" value="" style="endArrow=classic;html=1;rounded=0;exitX=0.5;exitY=1;exitDx=0;exitDy=0;exitPerimeter=0;" edge="1" parent="1" source="iDCBKettWaWd0seInYVd-10">
          <mxGeometry width="50" height="50" relative="1" as="geometry">
            <mxPoint x="710" y="110" as="sourcePoint" />
            <mxPoint x="720" y="90" as="targetPoint" />
            <Array as="points">
              <mxPoint x="720" y="90" />
            </Array>
          </mxGeometry>
        </mxCell>
        <mxCell id="iDCBKettWaWd0seInYVd-12" value="Generate patient details (ID, Gender, Arrival Time, Type) based on scenario  " style="rounded=1;whiteSpace=wrap;html=1;" vertex="1" parent="1">
          <mxGeometry x="660" y="90" width="120" height="60" as="geometry" />
        </mxCell>
        <mxCell id="iDCBKettWaWd0seInYVd-13" value="" style="endArrow=classic;html=1;rounded=0;exitX=0.5;exitY=1;exitDx=0;exitDy=0;" edge="1" parent="1" source="iDCBKettWaWd0seInYVd-12">
          <mxGeometry width="50" height="50" relative="1" as="geometry">
            <mxPoint x="730" y="160" as="sourcePoint" />
            <mxPoint x="720" y="190" as="targetPoint" />
          </mxGeometry>
        </mxCell>
        <mxCell id="iDCBKettWaWd0seInYVd-14" value="Assign patients to either the urgent or normal queue| based on type and arrival time&lt;div&gt;&lt;br&gt;&lt;/div&gt;" style="rounded=1;whiteSpace=wrap;html=1;" vertex="1" parent="1">
          <mxGeometry x="650" y="190" width="130" height="80" as="geometry" />
        </mxCell>
        <mxCell id="iDCBKettWaWd0seInYVd-15" value="Simulation begins&amp;nbsp; Prompt user to advance&amp;nbsp; time by pressing Enter&amp;nbsp;" style="rounded=1;whiteSpace=wrap;html=1;" vertex="1" parent="1">
          <mxGeometry x="655" y="300" width="120" height="60" as="geometry" />
        </mxCell>
        <mxCell id="iDCBKettWaWd0seInYVd-16" value="" style="endArrow=classic;html=1;rounded=0;exitX=0.5;exitY=1;exitDx=0;exitDy=0;entryX=0.5;entryY=0;entryDx=0;entryDy=0;" edge="1" parent="1" source="iDCBKettWaWd0seInYVd-14" target="iDCBKettWaWd0seInYVd-15">
          <mxGeometry width="50" height="50" relative="1" as="geometry">
            <mxPoint x="630" y="330" as="sourcePoint" />
            <mxPoint x="680" y="280" as="targetPoint" />
          </mxGeometry>
        </mxCell>
        <mxCell id="iDCBKettWaWd0seInYVd-17" value="" style="endArrow=classic;html=1;rounded=0;exitX=0.5;exitY=1;exitDx=0;exitDy=0;" edge="1" parent="1" source="iDCBKettWaWd0seInYVd-15">
          <mxGeometry width="50" height="50" relative="1" as="geometry">
            <mxPoint x="710" y="430" as="sourcePoint" />
            <mxPoint x="715" y="410" as="targetPoint" />
          </mxGeometry>
        </mxCell>
        <mxCell id="iDCBKettWaWd0seInYVd-18" value="Check for urgent patients&amp;nbsp; in the queue and serve&amp;nbsp; them (N at a time)&amp;nbsp; &amp;nbsp;&amp;nbsp;" style="rounded=1;whiteSpace=wrap;html=1;" vertex="1" parent="1">
          <mxGeometry x="655" y="410" width="120" height="60" as="geometry" />
        </mxCell>
        <mxCell id="iDCBKettWaWd0seInYVd-19" value="" style="endArrow=classic;html=1;rounded=0;exitX=0.5;exitY=1;exitDx=0;exitDy=0;" edge="1" parent="1" source="iDCBKettWaWd0seInYVd-18">
          <mxGeometry width="50" height="50" relative="1" as="geometry">
            <mxPoint x="690" y="500" as="sourcePoint" />
            <mxPoint x="715" y="520" as="targetPoint" />
          </mxGeometry>
        </mxCell>
        <mxCell id="iDCBKettWaWd0seInYVd-20" value="Serve normal patients if no urgent patients remain&amp;nbsp;" style="rounded=1;whiteSpace=wrap;html=1;" vertex="1" parent="1">
          <mxGeometry x="655" y="520" width="120" height="60" as="geometry" />
        </mxCell>
        <mxCell id="iDCBKettWaWd0seInYVd-21" value="" style="endArrow=classic;html=1;rounded=0;exitX=0.5;exitY=1;exitDx=0;exitDy=0;" edge="1" parent="1" source="iDCBKettWaWd0seInYVd-20">
          <mxGeometry width="50" height="50" relative="1" as="geometry">
            <mxPoint x="710" y="660" as="sourcePoint" />
            <mxPoint x="715" y="630" as="targetPoint" />
          </mxGeometry>
        </mxCell>
        <mxCell id="iDCBKettWaWd0seInYVd-22" value="Display current queue status and waiting stats&amp;nbsp;" style="rounded=1;whiteSpace=wrap;html=1;" vertex="1" parent="1">
          <mxGeometry x="655" y="630" width="120" height="60" as="geometry" />
        </mxCell>
        <mxCell id="iDCBKettWaWd0seInYVd-23" value="" style="endArrow=classic;html=1;rounded=0;exitX=0.5;exitY=1;exitDx=0;exitDy=0;" edge="1" parent="1" source="iDCBKettWaWd0seInYVd-22">
          <mxGeometry width="50" height="50" relative="1" as="geometry">
            <mxPoint x="710" y="740" as="sourcePoint" />
            <mxPoint x="715" y="730" as="targetPoint" />
          </mxGeometry>
        </mxCell>
        <mxCell id="iDCBKettWaWd0seInYVd-24" value="If all patients are&amp;nbsp; served, end simulation    |and display final stats&amp;nbsp;" style="rounded=1;whiteSpace=wrap;html=1;" vertex="1" parent="1">
          <mxGeometry x="655" y="730" width="120" height="60" as="geometry" />
        </mxCell>
        <mxCell id="iDCBKettWaWd0seInYVd-25" value="" style="ellipse;html=1;shape=endState;fillColor=#000000;strokeColor=#ff0000;" vertex="1" parent="1">
          <mxGeometry x="700" y="820" width="30" height="30" as="geometry" />
        </mxCell>
        <mxCell id="iDCBKettWaWd0seInYVd-26" value="" style="endArrow=classic;html=1;rounded=0;exitX=0.5;exitY=1;exitDx=0;exitDy=0;entryX=0.5;entryY=0;entryDx=0;entryDy=0;" edge="1" parent="1" source="iDCBKettWaWd0seInYVd-24" target="iDCBKettWaWd0seInYVd-25">
          <mxGeometry width="50" height="50" relative="1" as="geometry">
            <mxPoint x="650" y="860" as="sourcePoint" />
            <mxPoint x="700" y="810" as="targetPoint" />
          </mxGeometry>
        </mxCell>
      </root>
    </mxGraphModel>
  </diagram>
</mxfile>
